<?xml version="1.0" standalone="no"?>
<!DOCTYPE svg PUBLIC "-//W3C//DTD SVG 20010904//EN"
 "http://www.w3.org/TR/2001/REC-SVG-20010904/DTD/svg10.dtd">
<svg version="1.0" xmlns="http://www.w3.org/2000/svg"
 width="640.000000pt" height="640.000000pt" viewBox="0 0 640.000000 640.000000"
 preserveAspectRatio="xMidYMid meet">

<g transform="translate(0.000000,640.000000) scale(0.100000,-0.100000)"
fill="#000000" stroke="none">
<path d="M3025 5183 c-148 -17 -930 -22 -1440 -9 -316 8 -356 7 -408 -8 -153
-44 -197 -159 -197 -506 0 -187 6 -204 70 -208 59 -4 70 12 70 104 0 96 24
216 56 281 30 63 79 105 154 135 51 21 71 22 296 23 190 0 244 -3 257 -14 15
-12 17 -49 17 -350 -1 -390 -15 -1086 -30 -1481 -22 -569 -41 -684 -115 -719
-39 -18 -45 -28 -45 -75 0 -36 -7 -45 -92 -126 l-92 -87 -2 -102 c-2 -89 0
-102 16 -111 12 -6 189 -10 459 -10 428 0 442 1 461 20 23 23 25 42 9 72 -8
15 -8 31 0 59 16 53 1 79 -93 159 -74 63 -96 97 -96 152 0 9 -19 29 -42 45
-74 49 -73 47 -55 653 9 289 24 811 33 1160 8 349 18 654 20 678 3 27 11 45
21 49 9 4 145 -4 304 -17 316 -25 468 -24 534 4 86 37 126 108 105 186 -9 32
-38 65 -52 59 -2 -1 -57 -8 -123 -16z"/>
<path d="M3897 4564 c-290 -45 -516 -161 -727 -373 -228 -229 -380 -547 -446
-936 -22 -124 -25 -443 -6 -560 70 -431 265 -761 567 -956 50 -32 101 -66 114
-75 l24 -17 -23 -19 c-17 -13 -39 -18 -91 -18 -74 0 -109 -19 -109 -59 0 -10
-6 -23 -12 -28 -17 -13 -125 -45 -328 -97 -91 -24 -176 -48 -188 -55 -30 -16
-28 -45 4 -66 l26 -17 -27 -28 c-34 -36 -28 -56 22 -69 53 -15 2603 -15 2656
0 52 14 58 36 18 68 l-32 27 21 19 c11 10 20 28 18 39 -3 23 -71 49 -210 81
-40 10 -131 34 -203 54 -128 36 -130 37 -151 76 l-20 40 -88 11 c-92 12 -122
27 -159 76 -11 15 -17 33 -14 41 3 8 43 40 89 73 93 65 263 225 271 254 7 27
-29 70 -57 70 -13 0 -58 -27 -102 -61 -150 -116 -326 -207 -483 -250 -117 -32
-311 -37 -422 -11 -198 48 -354 154 -493 335 -325 427 -369 1235 -95 1767 101
198 236 338 403 420 129 64 194 80 336 87 183 9 354 -29 487 -108 81 -48 194
-163 226 -229 32 -66 57 -174 57 -250 0 -31 5 -61 12 -68 17 -17 73 -15 88 3
13 16 29 255 30 448 l0 117 -42 46 c-77 83 -286 167 -498 199 -117 18 -325 18
-443 -1z"/>
</g>
</svg>
